<?xml version="1.0" standalone="no"?>
<!DOCTYPE svg PUBLIC "-//W3C//DTD SVG 20010904//EN"
 "http://www.w3.org/TR/2001/REC-SVG-20010904/DTD/svg10.dtd">
<svg version="1.0" xmlns="http://www.w3.org/2000/svg"
 width="580.000000pt" height="280.000000pt" viewBox="0 0 580.000000 280.000000"
 preserveAspectRatio="xMidYMid meet">
<metadata>
Created by potrace 1.16, written by Peter Selinger 2001-2019
</metadata>
<g transform="translate(0.000000,280.000000) scale(0.100000,-0.100000)"
fill="#000000" stroke="none">
<path d="M3900 1705 l0 -1015 210 0 210 0 0 1015 0 1015 -210 0 -210 0 0
-1015z"/>
<path d="M4585 2616 c-155 -72 -191 -271 -70 -391 43 -44 116 -75 175 -75 89
0 184 62 221 144 26 58 25 163 -2 221 -53 113 -200 159 -324 101z"/>
<path d="M925 1931 c-72 -21 -156 -63 -207 -103 -42 -33 -58 -30 -58 11 0 52
-16 56 -227 59 l-193 4 0 -606 0 -606 209 0 209 0 5 348 c3 218 9 365 17 394
32 128 144 190 256 143 109 -45 115 -71 121 -522 l6 -363 202 0 203 0 6 73 c3
39 8 184 11 322 8 370 22 437 101 483 32 19 49 22 101 19 68 -5 144 -41 164
-78 16 -30 28 -279 29 -566 l0 -253 221 0 221 0 -5 428 c-3 235 -10 451 -16
481 -32 168 -159 286 -351 327 -92 19 -183 14 -263 -16 -52 -20 -90 -45 -215
-147 l-33 -26 -54 56 c-65 68 -128 101 -253 133 -110 28 -127 28 -207 5z"/>
<path d="M2938 1930 c-153 -27 -287 -98 -399 -209 -131 -131 -172 -234 -171
-436 1 -316 184 -531 511 -601 96 -20 342 -23 426 -5 202 44 400 213 466 396
33 92 39 318 10 412 -58 194 -251 362 -486 424 -89 23 -279 34 -357 19z m250
-380 c96 -43 161 -137 170 -246 12 -152 -109 -272 -274 -274 -127 0 -199 43
-248 149 -29 65 -29 180 1 237 28 53 82 99 157 136 70 33 115 33 194 -2z"/>
<path d="M4460 1295 l0 -605 225 0 225 0 0 605 0 605 -225 0 -225 0 0 -605z"/>
<path d="M5228 1171 c-60 -38 -117 -96 -134 -137 -8 -18 -14 -62 -14 -97 0
-113 42 -194 128 -244 41 -24 58 -28 127 -28 71 0 86 3 135 31 99 56 147 145
137 255 -6 70 -34 125 -87 173 -90 81 -208 100 -292 47z"/>
<path d="M948 460 c-24 -15 -22 -35 5 -52 21 -15 22 -22 22 -138 0 -116 -1
-123 -22 -137 -13 -9 -23 -21 -23 -28 0 -28 117 -47 150 -25 13 9 11 14 -13
31 -38 29 -50 54 -37 79 11 20 66 40 112 40 34 0 78 51 78 91 0 59 -24 94 -79
118 -59 25 -167 37 -193 21z m182 -80 c25 -25 26 -72 3 -92 -25 -21 -83 -31
-99 -17 -14 12 -20 110 -7 122 15 15 83 7 103 -13z"/>
<path d="M580 413 c0 -62 -49 -200 -94 -269 -20 -30 -34 -59 -31 -64 4 -6 26
-10 50 -10 53 0 79 21 70 59 -9 43 13 63 73 64 41 1 57 -4 73 -20 21 -21 21
-21 3 -52 -16 -28 -17 -33 -4 -41 32 -20 120 -4 120 22 0 7 -11 23 -25 36 -13
13 -43 71 -66 130 -71 182 -78 192 -140 192 -28 0 -29 -2 -29 -47z"/>
<path d="M1318 449 c-10 -5 -18 -15 -18 -21 0 -6 8 -20 18 -31 26 -29 24 -216
-2 -270 -16 -33 -17 -40 -5 -48 19 -12 81 -11 113 1 31 11 35 45 6 53 -23 6
-37 52 -20 71 6 8 37 18 68 22 74 9 112 44 112 103 0 93 -51 131 -177 131 -43
0 -86 -5 -95 -11z m190 -65 c28 -20 32 -88 5 -102 -37 -19 -82 -22 -98 -6 -15
15 -20 78 -9 108 8 21 72 21 102 0z"/>
<path d="M1882 451 c-66 -17 -96 -73 -71 -133 10 -25 30 -39 104 -73 100 -46
117 -65 82 -90 -38 -27 -90 -19 -138 20 -54 46 -73 43 -77 -12 -5 -66 32 -110
55 -68 8 13 14 12 48 -5 93 -47 205 -1 205 85 0 45 -14 59 -114 113 -102 55
-121 75 -91 98 27 21 78 12 121 -21 48 -37 68 -27 61 26 -3 23 -10 46 -15 51
-14 14 -129 19 -170 9z"/>
</g>
</svg>
