<!DOCTYPE svg PUBLIC "-//W3C//DTD SVG 1.1//EN" "http://www.w3.org/Graphics/SVG/1.1/DTD/svg11.dtd">
<!-- Uploaded to: SVG Repo, www.svgrepo.com, Transformed by: SVG Repo Mixer Tools -->
<svg height="800px" width="800px" version="1.1" id="Layer_1" xmlns="http://www.w3.org/2000/svg" xmlns:xlink="http://www.w3.org/1999/xlink" viewBox="0 0 496.159 496.159" xml:space="preserve" fill="#000000">
<g id="SVGRepo_bgCarrier" stroke-width="0"/>
<g id="SVGRepo_tracerCarrier" stroke-linecap="round" stroke-linejoin="round"/>
<g id="SVGRepo_iconCarrier"> <path style="fill:rgba(0, 0, 0, 0);" d="M248.083,0.003C111.071,0.003,0,111.063,0,248.085c0,137.001,111.07,248.07,248.083,248.07 c137.006,0,248.076-111.069,248.076-248.07C496.159,111.062,385.089,0.003,248.083,0.003z"/> <path style="fill:#E0AF4C;" d="M226.676,163.461v331.764c7.058,0.604,14.194,0.93,21.408,0.93c7.201,0,14.324-0.325,21.369-0.926 V163.461H226.676z"/> <path style="fill:#EDC988;" d="M226.676,163.461v331.764c6.612,0.565,13.296,0.876,20.045,0.913V163.461H226.676z"/> <path style="fill:#C16842;" d="M248.163,81.412c-20.671,0-37.428,11.288-37.428,42.293c0,18.865,6.203,45.355,15.717,55.535 c6.123,6.552,36.977,6.715,43.025,0.418c9.738-10.137,16.113-36.828,16.113-55.953C285.59,92.7,268.833,81.412,248.163,81.412z"/> <path style="fill:#A54B2B;" d="M226.452,179.241c6.123,6.552,36.977,6.715,43.025,0.418c9.738-10.137,16.113-36.828,16.113-55.953 C285.59,92.7,216.938,169.061,226.452,179.241z"/> </g>
</svg>